<?xml version="1.0" encoding="UTF-8"?>
<svg xmlns="http://www.w3.org/2000/svg" xmlns:xlink="http://www.w3.org/1999/xlink" width="67.511" height="65.693" viewBox="0 0 67.511 65.693">
<defs>
<clipPath id="clip-0">
<path clip-rule="nonzero" d="M 0 0.0820312 L 67.027344 0.0820312 L 67.027344 65.304688 L 0 65.304688 Z M 0 0.0820312 "/>
</clipPath>
<clipPath id="clip-1">
<path clip-rule="nonzero" d="M 0 0.0820312 L 67.027344 0.0820312 L 67.027344 65.304688 L 0 65.304688 Z M 0 0.0820312 "/>
</clipPath>
<clipPath id="clip-2">
<path clip-rule="nonzero" d="M 10 0.0820312 L 67.027344 0.0820312 L 67.027344 65.304688 L 10 65.304688 Z M 10 0.0820312 "/>
</clipPath>
<clipPath id="clip-3">
<path clip-rule="nonzero" d="M 0 0.0820312 L 66 0.0820312 L 66 58 L 0 58 Z M 0 0.0820312 "/>
</clipPath>
<clipPath id="clip-4">
<path clip-rule="nonzero" d="M 0 8 L 66 8 L 66 65.304688 L 0 65.304688 Z M 0 8 "/>
</clipPath>
<clipPath id="clip-5">
<path clip-rule="nonzero" d="M 0 0.0820312 L 67.027344 0.0820312 L 67.027344 60 L 0 60 Z M 0 0.0820312 "/>
</clipPath>
<clipPath id="clip-6">
<path clip-rule="nonzero" d="M 0 0.0820312 L 50 0.0820312 L 50 65.304688 L 0 65.304688 Z M 0 0.0820312 "/>
</clipPath>
<clipPath id="clip-7">
<path clip-rule="nonzero" d="M 0 5 L 67.027344 5 L 67.027344 65.304688 L 0 65.304688 Z M 0 5 "/>
</clipPath>
</defs>
<path fill="none" stroke-width="3.9851" stroke-linecap="butt" stroke-linejoin="miter" stroke="rgb(95.999146%, 95.999146%, 95.999146%)" stroke-opacity="1" stroke-miterlimit="10" d="M 5.669176 -0.000717409 L 22.678209 -0.000717409 " transform="matrix(0.992809, 0, 0, -0.992809, 30.64503, 32.6946)"/>
<g clip-path="url(#clip-0)">
<path fill="none" stroke-width="3.9851" stroke-linecap="butt" stroke-linejoin="miter" stroke="rgb(95.999146%, 95.999146%, 95.999146%)" stroke-opacity="1" stroke-miterlimit="10" d="M -2.833374 4.909594 L -11.339858 19.640526 " transform="matrix(0.992809, 0, 0, -0.992809, 30.64503, 32.6946)"/>
<path fill="none" stroke-width="3.9851" stroke-linecap="butt" stroke-linejoin="miter" stroke="rgb(95.999146%, 95.999146%, 95.999146%)" stroke-opacity="1" stroke-miterlimit="10" d="M -2.833374 -4.911028 L -11.339858 -19.638027 " transform="matrix(0.992809, 0, 0, -0.992809, 30.64503, 32.6946)"/>
</g>
<path fill-rule="nonzero" fill="rgb(86.399841%, 7.998657%, 23.498535%)" fill-opacity="1" d="M 37.398438 32.695312 C 37.398438 28.964844 34.375 25.941406 30.644531 25.941406 C 26.914062 25.941406 23.890625 28.964844 23.890625 32.695312 C 23.890625 36.425781 26.914062 39.449219 30.644531 39.449219 C 34.375 39.449219 37.398438 36.425781 37.398438 32.695312 Z M 37.398438 32.695312 "/>
<g clip-path="url(#clip-1)">
<path fill="none" stroke-width="2.98883" stroke-linecap="butt" stroke-linejoin="miter" stroke="rgb(95.999146%, 95.999146%, 95.999146%)" stroke-opacity="1" stroke-miterlimit="10" d="M 6.802324 -0.000717409 C 6.802324 3.756772 3.756987 6.802109 -0.000502318 6.802109 C -3.757992 6.802109 -6.803329 3.756772 -6.803329 -0.000717409 C -6.803329 -3.758207 -3.757992 -6.803544 -0.000502318 -6.803544 C 3.756987 -6.803544 6.802324 -3.758207 6.802324 -0.000717409 Z M 6.802324 -0.000717409 " transform="matrix(0.992809, 0, 0, -0.992809, 30.64503, 32.6946)"/>
</g>
<path fill-rule="nonzero" fill="rgb(13.198853%, 54.499817%, 13.198853%)" fill-opacity="1" d="M 65.542969 32.695312 C 65.542969 28.964844 62.519531 25.941406 58.789062 25.941406 C 55.058594 25.941406 52.035156 28.964844 52.035156 32.695312 C 52.035156 36.425781 55.058594 39.449219 58.789062 39.449219 C 62.519531 39.449219 65.542969 36.425781 65.542969 32.695312 Z M 65.542969 32.695312 "/>
<g clip-path="url(#clip-2)">
<path fill="none" stroke-width="2.98883" stroke-linecap="butt" stroke-linejoin="miter" stroke="rgb(95.999146%, 95.999146%, 95.999146%)" stroke-opacity="1" stroke-miterlimit="10" d="M 35.150714 -0.000717409 C 35.150714 3.756772 32.105377 6.802109 28.347887 6.802109 C 24.590398 6.802109 21.545061 3.756772 21.545061 -0.000717409 C 21.545061 -3.758207 24.590398 -6.803544 28.347887 -6.803544 C 32.105377 -6.803544 35.150714 -3.758207 35.150714 -0.000717409 Z M 35.150714 -0.000717409 " transform="matrix(0.992809, 0, 0, -0.992809, 30.64503, 32.6946)"/>
</g>
<path fill-rule="nonzero" fill="rgb(11.599731%, 56.498718%, 100%)" fill-opacity="1" d="M 23.328125 8.320312 C 23.328125 4.589844 20.304688 1.566406 16.574219 1.566406 C 12.84375 1.566406 9.820312 4.589844 9.820312 8.320312 C 9.820312 12.050781 12.84375 15.078125 16.574219 15.078125 C 20.304688 15.078125 23.328125 12.050781 23.328125 8.320312 Z M 23.328125 8.320312 "/>
<g clip-path="url(#clip-3)">
<path fill="none" stroke-width="2.98883" stroke-linecap="butt" stroke-linejoin="miter" stroke="rgb(95.999146%, 95.999146%, 95.999146%)" stroke-opacity="1" stroke-miterlimit="10" d="M -7.369903 24.550837 C -7.369903 28.308327 -10.41524 31.353664 -14.17273 31.353664 C -17.930219 31.353664 -20.975556 28.308327 -20.975556 24.550837 C -20.975556 20.793348 -17.930219 17.744076 -14.17273 17.744076 C -10.41524 17.744076 -7.369903 20.793348 -7.369903 24.550837 Z M -7.369903 24.550837 " transform="matrix(0.992809, 0, 0, -0.992809, 30.64503, 32.6946)"/>
</g>
<path fill-rule="nonzero" fill="rgb(100%, 84.399414%, 0%)" fill-opacity="1" d="M 23.328125 57.066406 C 23.328125 53.335938 20.304688 50.3125 16.574219 50.3125 C 12.84375 50.3125 9.820312 53.335938 9.820312 57.066406 C 9.820312 60.796875 12.84375 63.820312 16.574219 63.820312 C 20.304688 63.820312 23.328125 60.796875 23.328125 57.066406 Z M 23.328125 57.066406 "/>
<g clip-path="url(#clip-4)">
<path fill="none" stroke-width="2.98883" stroke-linecap="butt" stroke-linejoin="miter" stroke="rgb(95.999146%, 95.999146%, 95.999146%)" stroke-opacity="1" stroke-miterlimit="10" d="M -7.369903 -24.548337 C -7.369903 -20.790848 -10.41524 -17.745511 -14.17273 -17.745511 C -17.930219 -17.745511 -20.975556 -20.790848 -20.975556 -24.548337 C -20.975556 -28.305827 -17.930219 -31.351164 -14.17273 -31.351164 C -10.41524 -31.351164 -7.369903 -28.305827 -7.369903 -24.548337 Z M -7.369903 -24.548337 " transform="matrix(0.992809, 0, 0, -0.992809, 30.64503, 32.6946)"/>
</g>
<g clip-path="url(#clip-5)">
<path fill="none" stroke-width="2.98883" stroke-linecap="butt" stroke-linejoin="miter" stroke="rgb(95.999146%, 95.999146%, 95.999146%)" stroke-opacity="1" stroke-miterlimit="10" d="M 20.431585 15.284986 C 16.253099 20.868104 9.94209 24.511492 3.017293 25.333811 " transform="matrix(0.992809, 0, 0, -0.992809, 30.64503, 32.6946)"/>
</g>
<path fill-rule="nonzero" fill="rgb(95.999146%, 95.999146%, 95.999146%)" fill-opacity="1" stroke-width="2.0569" stroke-linecap="butt" stroke-linejoin="round" stroke="rgb(95.999146%, 95.999146%, 95.999146%)" stroke-opacity="1" stroke-miterlimit="10" d="M 23.248718 10.504515 C 23.382493 13.246892 23.193635 16.103371 22.682144 19.014934 C 22.088028 17.590629 21.438828 16.209604 20.734545 14.867924 C 19.26696 14.568899 17.826917 14.199052 16.426219 13.766252 C 18.720058 12.999016 21.013897 11.909147 23.248718 10.504515 Z M 23.248718 10.504515 " transform="matrix(0.992809, 0, 0, -0.992809, 30.64503, 32.6946)"/>
<path fill-rule="nonzero" fill="rgb(95.999146%, 95.999146%, 95.999146%)" fill-opacity="1" stroke-width="2.0569" stroke-linecap="butt" stroke-linejoin="round" stroke="rgb(95.999146%, 95.999146%, 95.999146%)" stroke-opacity="1" stroke-miterlimit="10" d="M -2.530414 25.38496 C -0.193295 24.153448 1.895948 22.713405 3.705838 21.108111 C 3.383206 22.540285 2.981882 23.968525 2.509737 25.388895 C 3.316318 26.671556 4.189787 27.922741 5.122274 29.150319 C 2.34842 28.139141 -0.216902 26.872218 -2.530414 25.38496 Z M -2.530414 25.38496 " transform="matrix(0.992809, 0, 0, -0.992809, 30.64503, 32.6946)"/>
<g clip-path="url(#clip-6)">
<path fill="none" stroke-width="2.98883" stroke-linecap="butt" stroke-linejoin="miter" stroke="rgb(95.999146%, 95.999146%, 95.999146%)" stroke-opacity="1" stroke-miterlimit="10" d="M -23.450385 10.052043 C -26.200631 3.64267 -26.200631 -3.644105 -23.450385 -10.053477 " transform="matrix(0.992809, 0, 0, -0.992809, 30.64503, 32.6946)"/>
</g>
<path fill-rule="nonzero" fill="rgb(95.999146%, 95.999146%, 95.999146%)" fill-opacity="1" stroke-width="2.0569" stroke-linecap="butt" stroke-linejoin="round" stroke="rgb(95.999146%, 95.999146%, 95.999146%)" stroke-opacity="1" stroke-miterlimit="10" d="M -20.719811 14.883663 C -23.163163 13.624608 -25.543562 12.035053 -27.805925 10.134668 C -26.279322 10.331395 -24.756653 10.461235 -23.241854 10.520253 C -22.250349 9.402843 -21.211629 8.340516 -20.133564 7.341142 C -20.617513 9.713672 -20.818175 12.243584 -20.719811 14.883663 Z M -20.719811 14.883663 " transform="matrix(0.992809, 0, 0, -0.992809, 30.64503, 32.6946)"/>
<path fill-rule="nonzero" fill="rgb(95.999146%, 95.999146%, 95.999146%)" fill-opacity="1" stroke-width="2.0569" stroke-linecap="butt" stroke-linejoin="round" stroke="rgb(95.999146%, 95.999146%, 95.999146%)" stroke-opacity="1" stroke-miterlimit="10" d="M -20.719811 -14.885097 C -20.818175 -12.245018 -20.617513 -9.715107 -20.133564 -7.342577 C -21.211629 -8.341951 -22.246414 -9.404278 -23.241854 -10.521688 C -24.756653 -10.46267 -26.279322 -10.33283 -27.805925 -10.140037 C -25.543562 -12.036488 -23.163163 -13.626043 -20.719811 -14.885097 Z M -20.719811 -14.885097 " transform="matrix(0.992809, 0, 0, -0.992809, 30.64503, 32.6946)"/>
<g clip-path="url(#clip-7)">
<path fill="none" stroke-width="2.98883" stroke-linecap="butt" stroke-linejoin="miter" stroke="rgb(95.999146%, 95.999146%, 95.999146%)" stroke-opacity="1" stroke-miterlimit="10" d="M 3.021227 -25.335246 C 9.946025 -24.508992 16.253099 -20.865604 20.431585 -15.282486 " transform="matrix(0.992809, 0, 0, -0.992809, 30.64503, 32.6946)"/>
</g>
<path fill-rule="nonzero" fill="rgb(95.999146%, 95.999146%, 95.999146%)" fill-opacity="1" stroke-width="2.0569" stroke-linecap="butt" stroke-linejoin="round" stroke="rgb(95.999146%, 95.999146%, 95.999146%)" stroke-opacity="1" stroke-miterlimit="10" d="M -2.530414 -25.386395 C -0.216902 -26.873653 2.34842 -28.136642 5.126209 -29.151754 C 4.189787 -27.924176 3.320253 -26.669057 2.509737 -25.39033 C 2.981882 -23.969959 3.383206 -22.54172 3.709773 -21.109546 C 1.895948 -22.71484 -0.193295 -24.150948 -2.530414 -25.386395 Z M -2.530414 -25.386395 " transform="matrix(0.992809, 0, 0, -0.992809, 30.64503, 32.6946)"/>
<path fill-rule="nonzero" fill="rgb(95.999146%, 95.999146%, 95.999146%)" fill-opacity="1" stroke-width="2.0569" stroke-linecap="butt" stroke-linejoin="round" stroke="rgb(95.999146%, 95.999146%, 95.999146%)" stroke-opacity="1" stroke-miterlimit="10" d="M 23.248718 -10.502015 C 21.013897 -11.906648 18.720058 -13.000451 16.426219 -13.763752 C 17.830851 -14.200487 19.26696 -14.566399 20.734545 -14.869359 C 21.438828 -16.207104 22.088028 -17.588129 22.686078 -19.008499 C 23.193635 -16.104806 23.382493 -13.248327 23.248718 -10.502015 Z M 23.248718 -10.502015 " transform="matrix(0.992809, 0, 0, -0.992809, 30.64503, 32.6946)"/>
</svg>
